<?xml version="1.0" encoding="UTF-8"?>
<svg width="72px" height="72px" viewBox="0 0 72 72" version="1.1" xmlns="http://www.w3.org/2000/svg" xmlns:xlink="http://www.w3.org/1999/xlink">
    <!-- Generator: Sketch 42 (36781) - http://www.bohemiancoding.com/sketch -->
    <title>Group-6</title>
    <desc>Created with Sketch.</desc>
    <defs></defs>
    <g id="Page-1" stroke="none" stroke-width="1" fill="none" fill-rule="evenodd">
        <g id="Group-6" fill-rule="nonzero">
            <polygon id="Shape" fill-opacity="0.54" fill="#000000" points="0 0 72 0 72 72 0 72"></polygon>
            <g id="icon-ds" transform="translate(12.000000, 13.000000)" fill="#FFFFFF">
                <path d="M30.3518217,29.2557152 C30.336818,28.8316629 30.1449284,28.5694927 29.7650976,28.4549907 C27.9251685,27.898274 26.5345612,26.7793128 25.5143086,25.0325647 C24.4766834,23.2550195 24.1379153,21.6393564 24.4482553,19.9478852 C24.5295912,19.4914564 24.3779748,19.1755888 23.9697158,18.9529021 C23.6301581,18.7681195 23.2898107,18.5857059 22.9486736,18.4025027 L22.7480977,18.294318 C22.2332334,18.0179338 21.6504576,17.7052248 21.0937409,17.3988332 C20.6799542,17.1674602 20.3080201,17.2851209 20.1279755,17.3972539 C20.0474293,17.447003 19.9629347,17.5101766 19.8800194,17.5844055 L19.7923661,17.661793 C19.4899229,17.9271219 19.1479961,18.2287755 18.783169,18.4530415 C18.6291835,18.5478018 18.479936,18.6251894 18.3275299,18.6875732 C16.9527159,19.2450796 15.6552896,19.5206742 14.4699962,19.5064601 C12.8377501,19.4875081 11.3792312,18.941057 10.0115243,17.8386789 C9.56378189,17.4770105 9.1902684,17.5646637 8.86176604,17.7676087 C7.96865025,18.3448568 7.04631671,18.9142083 6.09713442,19.4748734 C5.69124448,19.7259881 5.5680561,20.0276418 5.67387176,20.5172366 C6.3150831,23.4595438 5.34615907,26.0172821 2.71182286,28.3333817 C2.58863447,28.4415663 2.45281138,28.540275 2.29803623,28.6366146 C1.93399876,28.8616703 1.50915677,29.0338182 1.13485361,29.1854346 L1.03298629,29.2264974 C0.925591287,29.2691396 0.830830991,29.3165197 0.751864078,29.3662689 C0.435996426,29.5613172 0.303332013,29.826646 0.319915064,30.2262186 C0.345974146,30.8642712 0.364136536,31.5260139 0.380719587,32.1103691 L0.384667933,32.2319781 C0.39651297,32.6544511 0.408358007,33.0769241 0.42336172,33.4954488 C0.437575765,33.9613535 0.653155437,34.2401067 1.1016875,34.3727712 C2.74972698,34.8521003 4.04162567,35.8778805 5.16532484,37.6009386 C6.27007196,39.2955685 6.64911314,41.039158 6.32455913,42.9288362 C6.25427857,43.3220914 6.4019467,43.6126896 6.7754602,43.8172139 C7.88573499,44.4268385 8.81912391,44.9353854 9.76988554,45.4336667 C9.87254252,45.4873642 10.031266,45.5584344 10.2144693,45.5600137 C10.3495027,45.5615931 10.4766394,45.5268476 10.5919311,45.4557774 C10.6724774,45.4060282 10.7538133,45.3357477 10.8319905,45.2480944 C11.1194301,44.9243301 11.4724122,44.6313628 11.8814608,44.3786687 C13.0857062,43.6348004 14.7827052,43.2454935 16.4852318,43.3323571 C18.2280316,43.4208 19.761569,43.9909412 20.6925889,44.8966916 C20.8465744,45.0459391 21.0621541,45.218087 21.365387,45.2220353 L21.365387,45.2220353 C21.5604353,45.2244043 21.7586423,45.1588618 22.0065984,45.005666 C22.4946139,44.6969054 22.9771017,44.3976208 23.2969177,44.2002035 C23.6175234,44.0027862 24.1008009,43.7050809 24.6132962,43.3955306 C25.2489798,43.0030651 25.1992307,42.540319 25.0855183,42.1818092 C24.6930527,40.943608 24.8699386,39.3176792 25.5711648,37.7209683 C26.258177,36.153475 27.3502894,34.8236722 28.5671695,34.0719072 C28.9770078,33.8192131 29.3979014,33.6344305 29.8235331,33.5207182 C30.0114743,33.4678103 30.2752238,33.3619947 30.3913052,33.0603411 C30.4378957,32.945839 30.4576374,32.817123 30.4552684,32.6520821 C30.434737,31.4983755 30.3928845,30.3367722 30.3518217,29.2557152 L30.3518217,29.2557152 Z M18.7729033,36.8610186 C17.711588,37.4998609 16.5065529,37.8299426 15.2880934,37.8149389 C13.1670421,37.7896695 11.2110317,36.7267748 10.0557458,34.97213 C9.06865935,33.473338 8.73147063,31.7084275 9.10735314,30.0019525 C9.4792873,28.3104813 10.5058572,26.8693351 12.0322876,25.9233115 C13.0793889,25.2789415 14.2670512,24.9457011 15.4673483,24.9599151 C15.9656295,24.9662325 16.4647004,25.031775 16.9535056,25.1549634 C18.6473459,25.5829641 20.0750677,26.6742868 20.9737111,28.227566 C22.6912415,31.1983013 21.7215278,34.9918718 18.7729033,36.8610186 L18.7729033,36.8610186 Z" id="Shape"></path>
                <ellipse id="Oval" cx="15.3970678" cy="31.4091429" rx="3.74145234" ry="3.74145234"></ellipse>
                <path d="M48.4376138,10.3652503 C48.4249791,10.0146372 48.2670453,9.79826785 47.952757,9.70271788 C46.4318542,9.24234078 45.282096,8.31763823 44.4379397,6.87333339 C43.5795693,5.40375914 43.3000264,4.06842865 43.5566689,2.66992462 C43.6237908,2.29246277 43.4982334,2.03108229 43.1610447,1.84708938 C42.8807121,1.69468324 42.5988003,1.54306677 42.3168884,1.39223997 L42.1510579,1.30300735 C41.7254262,1.07479298 41.243728,0.815781501 40.7833509,0.56308738 C40.4414242,0.37198745 40.1342429,0.469116753 39.9849954,0.561508042 C39.9186632,0.602570836 39.8483827,0.655478668 39.7796815,0.716283191 L39.7070319,0.78024639 C39.4574965,0.999774408 39.1740052,1.24852018 38.8731413,1.4348821 C38.7460046,1.51384901 38.6228162,1.57702254 38.4964691,1.6291407 C37.3601353,2.09030748 36.2869749,2.31773219 35.3069955,2.30588715 C33.957451,2.29009377 32.7516262,1.83840302 31.62082,0.927124849 C31.2504652,0.628629918 30.9417046,0.700489808 30.6700584,0.868689333 C29.9317178,1.34564949 29.1688974,1.81708196 28.3847559,2.27982807 C28.0491465,2.48751105 27.9472792,2.73704649 28.0349325,3.14214676 C28.5648005,5.57511734 27.764076,7.6890616 25.5861685,9.60400924 C25.4843012,9.69324186 25.3721682,9.77536744 25.2442418,9.85433436 C24.9433779,10.0399066 24.5919751,10.1828367 24.2832145,10.3083941 L24.1987199,10.3423499 C24.1102769,10.377885 24.0320997,10.4165788 23.9665571,10.4576416 C23.7059663,10.6187341 23.5954127,10.8382621 23.6096267,11.1691335 C23.6309478,11.6966324 23.6459515,12.2438731 23.6601655,12.7271507 L23.6633242,12.8274386 C23.6728002,13.1772621 23.6830659,13.5255061 23.6957006,13.8713812 C23.7075457,14.2567398 23.8852212,14.4873231 24.2563657,14.5970871 C25.6201243,14.9927114 26.6885466,15.840816 27.6171975,17.2653791 C28.5308447,18.6662522 28.8435537,20.1073983 28.5758559,21.6701535 C28.5174203,21.9947076 28.6398191,22.2355566 28.9485797,22.4045458 C29.8661752,22.9083547 30.6384716,23.3284587 31.4241924,23.740666 C31.5094767,23.7848875 31.6397721,23.843323 31.7921782,23.845692 C31.9043112,23.8472713 32.0085476,23.8180536 32.1040975,23.7596181 C32.1712194,23.7185553 32.2375516,23.6601197 32.3023045,23.5874702 C32.5399949,23.3197724 32.8313828,23.0773439 33.1701509,22.8688713 C34.1659236,22.253719 35.568376,21.9323237 36.9763561,22.0041836 C38.4167125,22.0776228 39.6849212,22.5482656 40.4548486,23.2976616 C40.5819853,23.42085 40.7604505,23.5637801 41.0115653,23.5661491 L41.0115653,23.5661491 C41.1726578,23.5677285 41.3361193,23.514031 41.5414333,23.3876839 C41.9449542,23.1326208 42.3437371,22.8854543 42.6082763,22.7212032 C42.8736051,22.5577416 43.2731777,22.3113649 43.6964403,22.0563017 C44.22236,21.7317477 44.1805075,21.3495479 44.0865369,21.0526323 C43.7619829,20.0292211 43.9080717,18.6852042 44.4884785,17.3648774 C45.0562506,16.0690304 45.9596321,14.969811 46.9648809,14.3483414 C47.3036489,14.1390791 47.6511033,13.9866729 48.0032958,13.8927023 C48.1588606,13.8492705 48.3768093,13.7616172 48.4731489,13.5120818 C48.511053,13.4173215 48.5284258,13.3107161 48.5260567,13.174893 C48.506315,12.2193934 48.4723592,11.2591557 48.4376138,10.3652503 L48.4376138,10.3652503 Z M38.8652446,16.6525959 C37.9879222,17.1808845 36.9921494,17.4533204 35.9845316,17.4414754 C34.2306765,17.4201543 32.6142238,16.5420422 31.6587241,15.09142 C30.8429959,13.8524292 30.5642427,12.3931206 30.8745827,10.9827715 C31.1825537,9.58426752 32.0306583,8.39344647 33.2925496,7.61088436 C34.1580269,7.0778577 35.1403753,6.80226317 36.1321998,6.81410821 C36.5436174,6.81884622 36.9566143,6.87333339 37.3609249,6.97520071 C38.7610083,7.32897248 39.9415636,8.23077463 40.6838526,9.5155663 C42.1044674,11.9706476 41.3029532,15.1072134 38.8652446,16.6525959 L38.8652446,16.6525959 Z" id="Shape"></path>
            </g>
        </g>
    </g>
</svg>