<?xml version="1.0" encoding="UTF-8"?>
<svg width="72px" height="72px" viewBox="0 0 72 72" version="1.1" xmlns="http://www.w3.org/2000/svg" xmlns:xlink="http://www.w3.org/1999/xlink">
    <!-- Generator: Sketch 42 (36781) - http://www.bohemiancoding.com/sketch -->
    <title>dashboard</title>
    <desc>Created with Sketch.</desc>
    <defs></defs>
    <g id="Page-1" stroke="none" stroke-width="1" fill="none" fill-rule="evenodd">
        <g id="dashboard" fill-rule="nonzero">
            <polygon id="Shape" fill="#009A54" points="0 0 72 0 72 72 0 72"></polygon>
            <path d="M29,31 L32,31 L32,45 L29,45 L29,31 Z M24,26 L27,26 L27,45 L24,45 L24,26 Z M19,36 L22,36 L22,45 L19,45 L19,36 Z M14,40 L17,40 L17,45 L14,45 L14,40 Z M13.2631579,19 C12.5655351,19 12,18.3284271 12,17.5 C12,16.6715729 12.5655351,16 13.2631579,16 L58.7368421,16 C59.4344649,16 60,16.6715729 60,17.5 C60,18.3284271 59.4344649,19 58.7368421,19 L13.2631579,19 Z M13.2631579,55 C12.5655351,55 12,54.3284271 12,53.5 C12,52.6715729 12.5655351,52 13.2631579,52 L58.7368421,52 C59.4344649,52 60,52.6715729 60,53.5 C60,54.3284271 59.4344649,55 58.7368421,55 L13.2631579,55 Z M48.0306964,43 C44.1537604,43 41,39.860247 41,36.0010817 C41,32.1409179 44.1537604,29 48.0306964,29 L48.0306964,36.0000832 L53,40.9481023 C51.7269638,42.2146873 49.9685794,43 48.0306964,43 Z M48,27 C43.02948,27 39,31.02894 39,36.00108 C39,40.97106 43.02948,45 48,45 C50.48562,45 52.73562,43.99218 54.36444,42.36444 C55.99326,40.73562 57,38.48562 57,36.00108 C57,31.02894 52.9698,27 48,27 Z" id="Shape" fill="#FFFFFF"></path>
        </g>
    </g>
</svg>