<?xml version="1.0" encoding="UTF-8"?>
<svg width="72px" height="72px" viewBox="0 0 72 72" version="1.1" xmlns="http://www.w3.org/2000/svg" xmlns:xlink="http://www.w3.org/1999/xlink">
    <!-- Generator: Sketch 42 (36781) - http://www.bohemiancoding.com/sketch -->
    <title>ic-pm</title>
    <desc>Created with Sketch.</desc>
    <defs></defs>
    <g id="Page-1" stroke="none" stroke-width="1" fill="none" fill-rule="evenodd">
        <g id="ic-pm" fill-rule="nonzero">
            <polygon id="Shape" fill="#0099FF" points="0 0 72 0 72 72 0 72"></polygon>
            <path d="M24,25.5 C24,28.5409786 21.5347313,31 18.5062473,31 C15.4590214,31 13,28.5409786 13,25.5 C12.9995194,22.4652687 15.4585408,20 18.5062473,20 C21.5347313,20 24,22.4652687 24,25.5 Z M48,25.5 C48,22.4652687 50.4641345,20 53.490155,20 C56.5353853,20 58.9995198,22.4652687 59,25.5 C59,28.5409786 56.5358655,31 53.4906352,31 C50.4641345,31 48,28.5409786 48,25.5 Z M32.9623311,45.267668 C33.0372103,45.9163425 33.3060074,46.4774101 33.6496836,46.9757645 C29.5375685,46.290228 26.8620777,44.7195261 24.9684984,43.0674406 L24.9684984,52 L12,52 L12,38.1805996 C12,35.437975 14.2502154,33.1999282 17.0005854,33.1994495 L19.969353,33.1994495 C21.1813397,33.1994495 22.2814877,33.6542397 23.1502783,34.3713722 C23.175238,34.3962659 23.2126776,34.3962659 23.2438772,34.4149363 C24.2629061,35.0885046 25.0313777,36.0421279 25.8377689,37.0455389 C27.4937508,39.0906588 29.39981,41.3531207 34.0499992,42.2382862 C33.2872876,43.0233978 32.8375325,44.1019688 32.9623311,45.267668 Z M55.00656,33.1999282 C57.74976,33.1999282 60,35.437975 60,38.1805996 L60,52 L47.03808,52 L47.03808,43.0985578 C44.9568,44.9373467 41.93184,46.6703369 37.04448,47.2127341 C36.9504,47.2184788 36.86304,47.225181 36.7752,47.225181 C35.57568,47.225181 34.54416,46.3275687 34.41312,45.1120819 C34.2696,43.8094668 35.20704,42.6370654 36.51312,42.4877027 C42.28176,41.8519538 44.34432,39.2902878 46.16304,37.0460176 C46.9752,36.0363832 47.74416,35.0885046 48.7632,34.415415 C48.78768,34.3967447 48.8256,34.3967447 48.8568,34.3718509 C49.71936,33.6551972 50.82528,33.1999282 52.03152,33.1999282 L55.00656,33.1999282 Z" id="Shape" fill="#FFFFFF"></path>
        </g>
    </g>
</svg>