<?xml version="1.0" encoding="UTF-8"?>
<svg width="72px" height="72px" viewBox="0 0 72 72" version="1.1" xmlns="http://www.w3.org/2000/svg" xmlns:xlink="http://www.w3.org/1999/xlink">
    <!-- Generator: Sketch 42 (36781) - http://www.bohemiancoding.com/sketch -->
    <title>ic-trip-management</title>
    <desc>Created with Sketch.</desc>
    <defs></defs>
    <g id="Page-1" stroke="none" stroke-width="1" fill="none" fill-rule="evenodd">
        <g id="ic-trip-management">
            <polygon id="Shape" fill="#0061E9" points="0 0 72 0 72 72 0 72"></polygon>
            <path d="M53.5,14 C57.0935714,14 60,16.9735 60,20.65 C60,25.6375 53.5,33 53.5,33 C53.5,33 47,25.6375 47,20.65 C47,16.9735 49.9064286,14 53.5,14 Z M53.3313492,22.6626984 C54.618254,22.6626984 55.6626984,21.618254 55.6626984,20.3313492 C55.6626984,19.0444444 54.618254,18 53.3313492,18 C52.0444444,18 51,19.0444444 51,20.3313492 C51,21.618254 52.0444444,22.6626984 53.3313492,22.6626984 Z M23,30.9722222 C28.5285714,30.9722222 33,35.3542222 33,40.7722222 C33,48.1222222 23,58.9722222 23,58.9722222 C23,58.9722222 13,48.1222222 13,40.7722222 C13,35.3542222 17.4714286,30.9722222 23,30.9722222 Z M22.7946429,44.2668651 C24.7266429,44.2668651 26.2946429,42.6988651 26.2946429,40.7668651 C26.2946429,38.8348651 24.7266429,37.2668651 22.7946429,37.2668651 C20.8626429,37.2668651 19.2946429,38.8348651 19.2946429,40.7668651 C19.2946429,42.6988651 20.8626429,44.2668651 22.7946429,44.2668651 Z M29.9122982,59.2505341 C29.1826073,59.2070067 28.6259463,58.5731375 28.6689608,57.8347476 C28.7119754,57.0963576 29.3383769,56.5330602 30.0680678,56.5765876 C30.099147,56.5784416 30.1693249,56.5817101 30.2751766,56.5851374 C32.1236983,56.6449899 34.3887395,56.4861166 36.5301137,55.931465 C41.597771,54.6188576 43.6615403,51.7895037 41.6586094,46.3267726 C39.0082262,39.0982002 40.6349682,34.6857282 45.0497773,32.9714452 C46.5321807,32.3958237 48.0354593,32.2325498 49.2858765,32.2851062 C49.4029813,32.2908969 49.4029813,32.2908969 49.4448105,32.2940415 C50.1736041,32.3509143 50.7188468,32.9948661 50.6626441,33.7323482 C50.6064413,34.4698303 49.970076,35.0215732 49.1760245,34.961387 C48.8575956,34.9480031 48.441809,34.9577613 47.9688539,35.0091299 C47.2829078,35.0836317 46.6124947,35.2336638 45.998096,35.4722366 C43.0171704,36.6297385 41.9689746,39.4729271 44.1403305,45.3950152 C46.765255,52.5541524 43.6255519,56.858573 37.1865,58.5263946 C34.7609367,59.1546558 32.2669519,59.3295875 30.1905226,59.2623557 C30.0604385,59.2581438 29.9665951,59.253773 29.9122982,59.2505341 Z" id="Shape" fill="#FFFFFF" fill-rule="nonzero"></path>
        </g>
    </g>
</svg>